<svg xmlns="http://www.w3.org/2000/svg" version="1.1" xmlns:xlink="http://www.w3.org/1999/xlink" xmlns:svgjs="http://svgjs.com/svgjs" width="1440" height="1440" preserveAspectRatio="none" viewBox="0 0 1440 1440"><g mask="url(&quot;#SvgjsMask1085&quot;)" fill="none"><rect width="1440" height="1440" x="0" y="0" fill="rgba(144, 180, 219, 1)"></rect><g mask="url(&quot;#SvgjsMask1086&quot;)"><path d="M264 408L264 552L936 1224L1032 1224" stroke-width="8" stroke="rgba(20, 57, 95, 1)"></path><path d="M252 408 a12 12 0 1 0 24 0 a12 12 0 1 0 -24 0zM1020 1224 a12 12 0 1 0 24 0 a12 12 0 1 0 -24 0z" fill="rgba(20, 57, 95, 1)"></path><path d="M1176 408L1080 504L456 504L264 312" stroke-width="8" stroke="rgba(20, 57, 95, 1)"></path><path d="M1164 408 a12 12 0 1 0 24 0 a12 12 0 1 0 -24 0zM252 312 a12 12 0 1 0 24 0 a12 12 0 1 0 -24 0z" fill="rgba(20, 57, 95, 1)"></path><path d="M1080 312L1320 72L1416 72" stroke-width="8" stroke="rgba(20, 57, 95, 1)"></path><path d="M1068 312 a12 12 0 1 0 24 0 a12 12 0 1 0 -24 0zM1404 72 a12 12 0 1 0 24 0 a12 12 0 1 0 -24 0z" fill="rgba(20, 57, 95, 1)"></path><path d="M264 360L72 552L24 552" stroke-width="8" stroke="rgba(20, 57, 95, 1)"></path><path d="M252 360 a12 12 0 1 0 24 0 a12 12 0 1 0 -24 0zM12 552 a12 12 0 1 0 24 0 a12 12 0 1 0 -24 0z" fill="rgba(20, 57, 95, 1)"></path><path d="M1128 840L936 648L936 552" stroke-width="8" stroke="rgba(20, 57, 95, 1)"></path><path d="M1116 840 a12 12 0 1 0 24 0 a12 12 0 1 0 -24 0zM924 552 a12 12 0 1 0 24 0 a12 12 0 1 0 -24 0z" fill="rgba(20, 57, 95, 1)"></path><path d="M600 1416L24 1416" stroke-width="8" stroke="rgba(20, 57, 95, 1)"></path><path d="M588 1416 a12 12 0 1 0 24 0 a12 12 0 1 0 -24 0zM12 1416 a12 12 0 1 0 24 0 a12 12 0 1 0 -24 0z" fill="rgba(20, 57, 95, 1)"></path><path d="M216 600L216 456" stroke-width="8" stroke="rgba(20, 57, 95, 1)"></path><path d="M204 600 a12 12 0 1 0 24 0 a12 12 0 1 0 -24 0zM204 456 a12 12 0 1 0 24 0 a12 12 0 1 0 -24 0z" fill="rgba(20, 57, 95, 1)"></path><path d="M792 552L552 792" stroke-width="8" stroke="rgba(20, 57, 95, 1)"></path><path d="M780 552 a12 12 0 1 0 24 0 a12 12 0 1 0 -24 0zM540 792 a12 12 0 1 0 24 0 a12 12 0 1 0 -24 0z" fill="rgba(20, 57, 95, 1)"></path><path d="M24 696L24 600" stroke-width="8" stroke="rgba(20, 57, 95, 1)"></path><path d="M12 696 a12 12 0 1 0 24 0 a12 12 0 1 0 -24 0zM12 600 a12 12 0 1 0 24 0 a12 12 0 1 0 -24 0z" fill="rgba(20, 57, 95, 1)"></path><path d="M1320 504L1176 648L1080 648L984 552" stroke-width="8" stroke="rgba(20, 57, 95, 1)"></path><path d="M1308 504 a12 12 0 1 0 24 0 a12 12 0 1 0 -24 0zM972 552 a12 12 0 1 0 24 0 a12 12 0 1 0 -24 0z" fill="rgba(20, 57, 95, 1)"></path><path d="M408 936L408 744L264 600" stroke-width="8" stroke="rgba(20, 57, 95, 1)"></path><path d="M396 936 a12 12 0 1 0 24 0 a12 12 0 1 0 -24 0zM252 600 a12 12 0 1 0 24 0 a12 12 0 1 0 -24 0z" fill="rgba(20, 57, 95, 1)"></path><path d="M168 408L72 504L24 504" stroke-width="8" stroke="rgba(20, 57, 95, 1)"></path><path d="M156 408 a12 12 0 1 0 24 0 a12 12 0 1 0 -24 0zM12 504 a12 12 0 1 0 24 0 a12 12 0 1 0 -24 0z" fill="rgba(20, 57, 95, 1)"></path><path d="M1368 744L1272 648L1224 648L1128 744L1128 792L1320 984L1416 984" stroke-width="8" stroke="rgba(20, 57, 95, 1)"></path><path d="M1356 744 a12 12 0 1 0 24 0 a12 12 0 1 0 -24 0zM1404 984 a12 12 0 1 0 24 0 a12 12 0 1 0 -24 0z" fill="rgba(20, 57, 95, 1)"></path><path d="M1080 360L360 360L168 168" stroke-width="8" stroke="rgba(20, 57, 95, 1)"></path><path d="M1068 360 a12 12 0 1 0 24 0 a12 12 0 1 0 -24 0zM156 168 a12 12 0 1 0 24 0 a12 12 0 1 0 -24 0z" fill="rgba(20, 57, 95, 1)"></path><path d="M456 264L216 24L24 24" stroke-width="8" stroke="rgba(20, 57, 95, 1)"></path><path d="M444 264 a12 12 0 1 0 24 0 a12 12 0 1 0 -24 0zM12 24 a12 12 0 1 0 24 0 a12 12 0 1 0 -24 0z" fill="rgba(20, 57, 95, 1)"></path><path d="M1416 648L1320 648L1272 600" stroke-width="8" stroke="rgba(20, 57, 95, 1)"></path><path d="M1404 648 a12 12 0 1 0 24 0 a12 12 0 1 0 -24 0zM1260 600 a12 12 0 1 0 24 0 a12 12 0 1 0 -24 0z" fill="rgba(20, 57, 95, 1)"></path><path d="M1272 792L1272 888L1320 936L1416 936" stroke-width="8" stroke="rgba(20, 57, 95, 1)"></path><path d="M1260 792 a12 12 0 1 0 24 0 a12 12 0 1 0 -24 0zM1404 936 a12 12 0 1 0 24 0 a12 12 0 1 0 -24 0z" fill="rgba(20, 57, 95, 1)"></path><path d="M936 1080L936 744L792 600" stroke-width="8" stroke="rgba(20, 57, 95, 1)"></path><path d="M924 1080 a12 12 0 1 0 24 0 a12 12 0 1 0 -24 0zM780 600 a12 12 0 1 0 24 0 a12 12 0 1 0 -24 0z" fill="rgba(20, 57, 95, 1)"></path><path d="M408 1320L408 1224L648 984" stroke-width="8" stroke="rgba(20, 57, 95, 1)"></path><path d="M396 1320 a12 12 0 1 0 24 0 a12 12 0 1 0 -24 0zM636 984 a12 12 0 1 0 24 0 a12 12 0 1 0 -24 0z" fill="rgba(20, 57, 95, 1)"></path><path d="M1320 312L1416 312" stroke-width="8" stroke="rgba(20, 57, 95, 1)"></path><path d="M1308 312 a12 12 0 1 0 24 0 a12 12 0 1 0 -24 0zM1404 312 a12 12 0 1 0 24 0 a12 12 0 1 0 -24 0z" fill="rgba(20, 57, 95, 1)"></path><path d="M552 1128L456 1224L456 1368" stroke-width="8" stroke="rgba(20, 57, 95, 1)"></path><path d="M540 1128 a12 12 0 1 0 24 0 a12 12 0 1 0 -24 0zM444 1368 a12 12 0 1 0 24 0 a12 12 0 1 0 -24 0z" fill="rgba(20, 57, 95, 1)"></path><path d="M696 888L744 936L744 984L936 1176L1416 1176" stroke-width="8" stroke="rgba(20, 57, 95, 1)"></path><path d="M684 888 a12 12 0 1 0 24 0 a12 12 0 1 0 -24 0zM1404 1176 a12 12 0 1 0 24 0 a12 12 0 1 0 -24 0z" fill="rgba(20, 57, 95, 1)"></path><path d="M216 1032L312 936L312 696L264 648L72 648" stroke-width="8" stroke="rgba(20, 57, 95, 1)"></path><path d="M204 1032 a12 12 0 1 0 24 0 a12 12 0 1 0 -24 0zM60 648 a12 12 0 1 0 24 0 a12 12 0 1 0 -24 0z" fill="rgba(20, 57, 95, 1)"></path><path d="M1128 1272L1176 1320L1320 1320L1416 1224" stroke-width="8" stroke="rgba(20, 57, 95, 1)"></path><path d="M1116 1272 a12 12 0 1 0 24 0 a12 12 0 1 0 -24 0zM1404 1224 a12 12 0 1 0 24 0 a12 12 0 1 0 -24 0z" fill="rgba(20, 57, 95, 1)"></path><path d="M72 408L24 360L24 72" stroke-width="8" stroke="rgba(20, 57, 95, 1)"></path><path d="M60 408 a12 12 0 1 0 24 0 a12 12 0 1 0 -24 0zM12 72 a12 12 0 1 0 24 0 a12 12 0 1 0 -24 0z" fill="rgba(20, 57, 95, 1)"></path><path d="M984 1080L1032 1128L1416 1128" stroke-width="8" stroke="rgba(20, 57, 95, 1)"></path><path d="M972 1080 a12 12 0 1 0 24 0 a12 12 0 1 0 -24 0zM1404 1128 a12 12 0 1 0 24 0 a12 12 0 1 0 -24 0z" fill="rgba(20, 57, 95, 1)"></path><path d="M264 1176L264 1368" stroke-width="8" stroke="rgba(20, 57, 95, 1)"></path><path d="M252 1176 a12 12 0 1 0 24 0 a12 12 0 1 0 -24 0zM252 1368 a12 12 0 1 0 24 0 a12 12 0 1 0 -24 0z" fill="rgba(20, 57, 95, 1)"></path><path d="M1416 216L1368 216L1224 360L1224 408L1272 456L1416 456" stroke-width="8" stroke="rgba(20, 57, 95, 1)"></path><path d="M1404 216 a12 12 0 1 0 24 0 a12 12 0 1 0 -24 0zM1404 456 a12 12 0 1 0 24 0 a12 12 0 1 0 -24 0z" fill="rgba(20, 57, 95, 1)"></path><path d="M1368 24L1224 24L936 312L456 312" stroke-width="8" stroke="rgba(20, 57, 95, 1)"></path><path d="M1356 24 a12 12 0 1 0 24 0 a12 12 0 1 0 -24 0zM444 312 a12 12 0 1 0 24 0 a12 12 0 1 0 -24 0z" fill="rgba(20, 57, 95, 1)"></path><path d="M888 936L888 744L840 696L696 696L600 792L600 840L648 888" stroke-width="8" stroke="rgba(20, 57, 95, 1)"></path><path d="M876 936 a12 12 0 1 0 24 0 a12 12 0 1 0 -24 0zM636 888 a12 12 0 1 0 24 0 a12 12 0 1 0 -24 0z" fill="rgba(20, 57, 95, 1)"></path><path d="M72 216L216 72" stroke-width="8" stroke="rgba(20, 57, 95, 1)"></path><path d="M60 216 a12 12 0 1 0 24 0 a12 12 0 1 0 -24 0zM204 72 a12 12 0 1 0 24 0 a12 12 0 1 0 -24 0z" fill="rgba(20, 57, 95, 1)"></path><path d="M216 264L120 360L72 360" stroke-width="8" stroke="rgba(20, 57, 95, 1)"></path><path d="M204 264 a12 12 0 1 0 24 0 a12 12 0 1 0 -24 0zM60 360 a12 12 0 1 0 24 0 a12 12 0 1 0 -24 0z" fill="rgba(20, 57, 95, 1)"></path><path d="M888 120L984 216" stroke-width="8" stroke="rgba(20, 57, 95, 1)"></path><path d="M876 120 a12 12 0 1 0 24 0 a12 12 0 1 0 -24 0zM972 216 a12 12 0 1 0 24 0 a12 12 0 1 0 -24 0z" fill="rgba(20, 57, 95, 1)"></path><path d="M888 1224L792 1320L792 1416" stroke-width="8" stroke="rgba(20, 57, 95, 1)"></path><path d="M876 1224 a12 12 0 1 0 24 0 a12 12 0 1 0 -24 0zM780 1416 a12 12 0 1 0 24 0 a12 12 0 1 0 -24 0z" fill="rgba(20, 57, 95, 1)"></path><path d="M984 1368L1128 1224L1368 1224" stroke-width="8" stroke="rgba(20, 57, 95, 1)"></path><path d="M972 1368 a12 12 0 1 0 24 0 a12 12 0 1 0 -24 0zM1356 1224 a12 12 0 1 0 24 0 a12 12 0 1 0 -24 0z" fill="rgba(20, 57, 95, 1)"></path><path d="M312 1128L312 1368" stroke-width="8" stroke="rgba(20, 57, 95, 1)"></path><path d="M300 1128 a12 12 0 1 0 24 0 a12 12 0 1 0 -24 0zM300 1368 a12 12 0 1 0 24 0 a12 12 0 1 0 -24 0z" fill="rgba(20, 57, 95, 1)"></path><path d="M1080 216L1224 72L1272 72" stroke-width="8" stroke="rgba(20, 57, 95, 1)"></path><path d="M1068 216 a12 12 0 1 0 24 0 a12 12 0 1 0 -24 0zM1260 72 a12 12 0 1 0 24 0 a12 12 0 1 0 -24 0z" fill="rgba(20, 57, 95, 1)"></path><path d="M456 216L456 24" stroke-width="8" stroke="rgba(20, 57, 95, 1)"></path><path d="M444 216 a12 12 0 1 0 24 0 a12 12 0 1 0 -24 0zM444 24 a12 12 0 1 0 24 0 a12 12 0 1 0 -24 0z" fill="rgba(20, 57, 95, 1)"></path><path d="M744 1224L792 1176L840 1176" stroke-width="8" stroke="rgba(20, 57, 95, 1)"></path><path d="M732 1224 a12 12 0 1 0 24 0 a12 12 0 1 0 -24 0zM828 1176 a12 12 0 1 0 24 0 a12 12 0 1 0 -24 0z" fill="rgba(20, 57, 95, 1)"></path><path d="M1080 1032L984 936L984 744" stroke-width="8" stroke="rgba(20, 57, 95, 1)"></path><path d="M1068 1032 a12 12 0 1 0 24 0 a12 12 0 1 0 -24 0zM972 744 a12 12 0 1 0 24 0 a12 12 0 1 0 -24 0z" fill="rgba(20, 57, 95, 1)"></path><path d="M1128 1032L1224 936" stroke-width="8" stroke="rgba(20, 57, 95, 1)"></path><path d="M1116 1032 a12 12 0 1 0 24 0 a12 12 0 1 0 -24 0zM1212 936 a12 12 0 1 0 24 0 a12 12 0 1 0 -24 0z" fill="rgba(20, 57, 95, 1)"></path><path d="M408 168L264 24" stroke-width="8" stroke="rgba(20, 57, 95, 1)"></path><path d="M396 168 a12 12 0 1 0 24 0 a12 12 0 1 0 -24 0zM252 24 a12 12 0 1 0 24 0 a12 12 0 1 0 -24 0z" fill="rgba(20, 57, 95, 1)"></path><path d="M216 120L264 120L408 264L408 312" stroke-width="8" stroke="rgba(20, 57, 95, 1)"></path><path d="M204 120 a12 12 0 1 0 24 0 a12 12 0 1 0 -24 0zM396 312 a12 12 0 1 0 24 0 a12 12 0 1 0 -24 0z" fill="rgba(20, 57, 95, 1)"></path><path d="M72 1368L72 1272L24 1224" stroke-width="8" stroke="rgba(20, 57, 95, 1)"></path><path d="M60 1368 a12 12 0 1 0 24 0 a12 12 0 1 0 -24 0zM12 1224 a12 12 0 1 0 24 0 a12 12 0 1 0 -24 0z" fill="rgba(20, 57, 95, 1)"></path><path d="M120 1176L24 1080L24 744L72 696L264 696" stroke-width="8" stroke="rgba(20, 57, 95, 1)"></path><path d="M108 1176 a12 12 0 1 0 24 0 a12 12 0 1 0 -24 0zM252 696 a12 12 0 1 0 24 0 a12 12 0 1 0 -24 0z" fill="rgba(20, 57, 95, 1)"></path><path d="M456 936L120 1272L120 1320L168 1368L216 1368" stroke-width="8" stroke="rgba(20, 57, 95, 1)"></path><path d="M444 936 a12 12 0 1 0 24 0 a12 12 0 1 0 -24 0zM204 1368 a12 12 0 1 0 24 0 a12 12 0 1 0 -24 0z" fill="rgba(20, 57, 95, 1)"></path><path d="M600 600L696 600" stroke-width="8" stroke="rgba(20, 57, 95, 1)"></path><path d="M588 600 a12 12 0 1 0 24 0 a12 12 0 1 0 -24 0zM684 600 a12 12 0 1 0 24 0 a12 12 0 1 0 -24 0z" fill="rgba(20, 57, 95, 1)"></path><path d="M1224 1368L1032 1368L984 1416L840 1416" stroke-width="8" stroke="rgba(20, 57, 95, 1)"></path><path d="M1212 1368 a12 12 0 1 0 24 0 a12 12 0 1 0 -24 0zM828 1416 a12 12 0 1 0 24 0 a12 12 0 1 0 -24 0z" fill="rgba(20, 57, 95, 1)"></path><path d="M744 120L744 24" stroke-width="8" stroke="rgba(20, 57, 95, 1)"></path><path d="M732 120 a12 12 0 1 0 24 0 a12 12 0 1 0 -24 0zM732 24 a12 12 0 1 0 24 0 a12 12 0 1 0 -24 0z" fill="rgba(20, 57, 95, 1)"></path><path d="M552 984L552 1032L360 1224L360 1368" stroke-width="8" stroke="rgba(20, 57, 95, 1)"></path><path d="M540 984 a12 12 0 1 0 24 0 a12 12 0 1 0 -24 0zM348 1368 a12 12 0 1 0 24 0 a12 12 0 1 0 -24 0z" fill="rgba(20, 57, 95, 1)"></path><path d="M1368 1368L1320 1416L1032 1416" stroke-width="8" stroke="rgba(20, 57, 95, 1)"></path><path d="M1356 1368 a12 12 0 1 0 24 0 a12 12 0 1 0 -24 0zM1020 1416 a12 12 0 1 0 24 0 a12 12 0 1 0 -24 0z" fill="rgba(20, 57, 95, 1)"></path><path d="M552 264L552 24" stroke-width="8" stroke="rgba(20, 57, 95, 1)"></path><path d="M540 264 a12 12 0 1 0 24 0 a12 12 0 1 0 -24 0zM540 24 a12 12 0 1 0 24 0 a12 12 0 1 0 -24 0z" fill="rgba(20, 57, 95, 1)"></path><path d="M648 1224L504 1224" stroke-width="8" stroke="rgba(20, 57, 95, 1)"></path><path d="M636 1224 a12 12 0 1 0 24 0 a12 12 0 1 0 -24 0zM492 1224 a12 12 0 1 0 24 0 a12 12 0 1 0 -24 0z" fill="rgba(20, 57, 95, 1)"></path><path d="M840 168L840 24" stroke-width="8" stroke="rgba(20, 57, 95, 1)"></path><path d="M828 168 a12 12 0 1 0 24 0 a12 12 0 1 0 -24 0zM828 24 a12 12 0 1 0 24 0 a12 12 0 1 0 -24 0z" fill="rgba(20, 57, 95, 1)"></path><path d="M1176 936L1080 936L1032 888L1032 792" stroke-width="8" stroke="rgba(20, 57, 95, 1)"></path><path d="M1164 936 a12 12 0 1 0 24 0 a12 12 0 1 0 -24 0zM1020 792 a12 12 0 1 0 24 0 a12 12 0 1 0 -24 0z" fill="rgba(20, 57, 95, 1)"></path><path d="M408 552L456 600L504 600L600 696" stroke-width="8" stroke="rgba(20, 57, 95, 1)"></path><path d="M396 552 a12 12 0 1 0 24 0 a12 12 0 1 0 -24 0zM588 696 a12 12 0 1 0 24 0 a12 12 0 1 0 -24 0z" fill="rgba(20, 57, 95, 1)"></path><path d="M792 1272L648 1416" stroke-width="8" stroke="rgba(20, 57, 95, 1)"></path><path d="M780 1272 a12 12 0 1 0 24 0 a12 12 0 1 0 -24 0zM636 1416 a12 12 0 1 0 24 0 a12 12 0 1 0 -24 0z" fill="rgba(20, 57, 95, 1)"></path><path d="M1272 216L1032 456L984 456" stroke-width="8" stroke="rgba(20, 57, 95, 1)"></path><path d="M1260 216 a12 12 0 1 0 24 0 a12 12 0 1 0 -24 0zM972 456 a12 12 0 1 0 24 0 a12 12 0 1 0 -24 0z" fill="rgba(20, 57, 95, 1)"></path><path d="M1272 984L1176 1080L1032 1080" stroke-width="8" stroke="rgba(20, 57, 95, 1)"></path><path d="M1260 984 a12 12 0 1 0 24 0 a12 12 0 1 0 -24 0zM1020 1080 a12 12 0 1 0 24 0 a12 12 0 1 0 -24 0z" fill="rgba(20, 57, 95, 1)"></path><path d="M792 936L792 984L888 1080" stroke-width="8" stroke="rgba(20, 57, 95, 1)"></path><path d="M780 936 a12 12 0 1 0 24 0 a12 12 0 1 0 -24 0zM876 1080 a12 12 0 1 0 24 0 a12 12 0 1 0 -24 0z" fill="rgba(20, 57, 95, 1)"></path><path d="M696 1128L696 1032" stroke-width="8" stroke="rgba(20, 57, 95, 1)"></path><path d="M684 1128 a12 12 0 1 0 24 0 a12 12 0 1 0 -24 0zM684 1032 a12 12 0 1 0 24 0 a12 12 0 1 0 -24 0z" fill="rgba(20, 57, 95, 1)"></path><path d="M360 600L408 600L552 744" stroke-width="8" stroke="rgba(20, 57, 95, 1)"></path><path d="M348 600 a12 12 0 1 0 24 0 a12 12 0 1 0 -24 0zM540 744 a12 12 0 1 0 24 0 a12 12 0 1 0 -24 0z" fill="rgba(20, 57, 95, 1)"></path><path d="M168 936L168 744" stroke-width="8" stroke="rgba(20, 57, 95, 1)"></path><path d="M156 936 a12 12 0 1 0 24 0 a12 12 0 1 0 -24 0zM156 744 a12 12 0 1 0 24 0 a12 12 0 1 0 -24 0z" fill="rgba(20, 57, 95, 1)"></path><path d="M744 888L792 840L840 840" stroke-width="8" stroke="rgba(20, 57, 95, 1)"></path><path d="M732 888 a12 12 0 1 0 24 0 a12 12 0 1 0 -24 0zM828 840 a12 12 0 1 0 24 0 a12 12 0 1 0 -24 0z" fill="rgba(20, 57, 95, 1)"></path><path d="M744 264L936 264" stroke-width="8" stroke="rgba(20, 57, 95, 1)"></path><path d="M732 264 a12 12 0 1 0 24 0 a12 12 0 1 0 -24 0zM924 264 a12 12 0 1 0 24 0 a12 12 0 1 0 -24 0z" fill="rgba(20, 57, 95, 1)"></path><path d="M72 1080L72 792" stroke-width="8" stroke="rgba(20, 57, 95, 1)"></path><path d="M60 1080 a12 12 0 1 0 24 0 a12 12 0 1 0 -24 0zM60 792 a12 12 0 1 0 24 0 a12 12 0 1 0 -24 0z" fill="rgba(20, 57, 95, 1)"></path><path d="M600 216L648 264L696 264L792 168L792 24" stroke-width="8" stroke="rgba(20, 57, 95, 1)"></path><path d="M588 216 a12 12 0 1 0 24 0 a12 12 0 1 0 -24 0zM780 24 a12 12 0 1 0 24 0 a12 12 0 1 0 -24 0z" fill="rgba(20, 57, 95, 1)"></path><path d="M648 72L600 120L600 168L648 216L696 216L744 168" stroke-width="8" stroke="rgba(20, 57, 95, 1)"></path><path d="M636 72 a12 12 0 1 0 24 0 a12 12 0 1 0 -24 0zM732 168 a12 12 0 1 0 24 0 a12 12 0 1 0 -24 0z" fill="rgba(20, 57, 95, 1)"></path><path d="M72 72L168 72" stroke-width="8" stroke="rgba(20, 57, 95, 1)"></path><path d="M60 72 a12 12 0 1 0 24 0 a12 12 0 1 0 -24 0zM156 72 a12 12 0 1 0 24 0 a12 12 0 1 0 -24 0z" fill="rgba(20, 57, 95, 1)"></path><path d="M264 1080L120 1080" stroke-width="8" stroke="rgba(20, 57, 95, 1)"></path><path d="M252 1080 a12 12 0 1 0 24 0 a12 12 0 1 0 -24 0zM108 1080 a12 12 0 1 0 24 0 a12 12 0 1 0 -24 0z" fill="rgba(20, 57, 95, 1)"></path><path d="M1224 1272L1320 1272" stroke-width="8" stroke="rgba(20, 57, 95, 1)"></path><path d="M1212 1272 a12 12 0 1 0 24 0 a12 12 0 1 0 -24 0zM1308 1272 a12 12 0 1 0 24 0 a12 12 0 1 0 -24 0z" fill="rgba(20, 57, 95, 1)"></path><path d="M1176 456L1224 456L1272 504" stroke-width="8" stroke="rgba(20, 57, 95, 1)"></path><path d="M1164 456 a12 12 0 1 0 24 0 a12 12 0 1 0 -24 0zM1260 504 a12 12 0 1 0 24 0 a12 12 0 1 0 -24 0z" fill="rgba(20, 57, 95, 1)"></path><path d="M456 840L552 936L600 936" stroke-width="8" stroke="rgba(20, 57, 95, 1)"></path><path d="M444 840 a12 12 0 1 0 24 0 a12 12 0 1 0 -24 0zM588 936 a12 12 0 1 0 24 0 a12 12 0 1 0 -24 0z" fill="rgba(20, 57, 95, 1)"></path><path d="M648 1272L648 1368" stroke-width="8" stroke="rgba(20, 57, 95, 1)"></path><path d="M636 1272 a12 12 0 1 0 24 0 a12 12 0 1 0 -24 0zM636 1368 a12 12 0 1 0 24 0 a12 12 0 1 0 -24 0z" fill="rgba(20, 57, 95, 1)"></path><path d="M1320 840L1368 888L1416 888" stroke-width="8" stroke="rgba(20, 57, 95, 1)"></path><path d="M1308 840 a12 12 0 1 0 24 0 a12 12 0 1 0 -24 0zM1404 888 a12 12 0 1 0 24 0 a12 12 0 1 0 -24 0z" fill="rgba(20, 57, 95, 1)"></path><path d="M1272 696L1224 696L1176 744L1176 792" stroke-width="8" stroke="rgba(20, 57, 95, 1)"></path><path d="M1260 696 a12 12 0 1 0 24 0 a12 12 0 1 0 -24 0zM1164 792 a12 12 0 1 0 24 0 a12 12 0 1 0 -24 0z" fill="rgba(20, 57, 95, 1)"></path><path d="M744 1272L600 1128L600 1080L648 1032" stroke-width="8" stroke="rgba(20, 57, 95, 1)"></path><path d="M732 1272 a12 12 0 1 0 24 0 a12 12 0 1 0 -24 0zM636 1032 a12 12 0 1 0 24 0 a12 12 0 1 0 -24 0z" fill="rgba(20, 57, 95, 1)"></path><path d="M264 888L216 840L216 744" stroke-width="8" stroke="rgba(20, 57, 95, 1)"></path><path d="M252 888 a12 12 0 1 0 24 0 a12 12 0 1 0 -24 0zM204 744 a12 12 0 1 0 24 0 a12 12 0 1 0 -24 0z" fill="rgba(20, 57, 95, 1)"></path><path d="M312 552L312 408" stroke-width="8" stroke="rgba(20, 57, 95, 1)"></path><path d="M300 552 a12 12 0 1 0 24 0 a12 12 0 1 0 -24 0zM300 408 a12 12 0 1 0 24 0 a12 12 0 1 0 -24 0z" fill="rgba(20, 57, 95, 1)"></path><path d="M72 312L120 312L168 264L168 216" stroke-width="8" stroke="rgba(20, 57, 95, 1)"></path><path d="M60 312 a12 12 0 1 0 24 0 a12 12 0 1 0 -24 0zM156 216 a12 12 0 1 0 24 0 a12 12 0 1 0 -24 0z" fill="rgba(20, 57, 95, 1)"></path><path d="M1128 600L1224 504" stroke-width="8" stroke="rgba(20, 57, 95, 1)"></path><path d="M1116 600 a12 12 0 1 0 24 0 a12 12 0 1 0 -24 0zM1212 504 a12 12 0 1 0 24 0 a12 12 0 1 0 -24 0z" fill="rgba(20, 57, 95, 1)"></path><path d="M840 936L888 984L888 1032" stroke-width="8" stroke="rgba(20, 57, 95, 1)"></path><path d="M828 936 a12 12 0 1 0 24 0 a12 12 0 1 0 -24 0zM876 1032 a12 12 0 1 0 24 0 a12 12 0 1 0 -24 0z" fill="rgba(20, 57, 95, 1)"></path><path d="M648 792L696 840L744 840L840 744" stroke-width="8" stroke="rgba(20, 57, 95, 1)"></path><path d="M636 792 a12 12 0 1 0 24 0 a12 12 0 1 0 -24 0zM828 744 a12 12 0 1 0 24 0 a12 12 0 1 0 -24 0z" fill="rgba(20, 57, 95, 1)"></path><path d="M696 24L600 24" stroke-width="8" stroke="rgba(20, 57, 95, 1)"></path><path d="M684 24 a12 12 0 1 0 24 0 a12 12 0 1 0 -24 0zM588 24 a12 12 0 1 0 24 0 a12 12 0 1 0 -24 0z" fill="rgba(20, 57, 95, 1)"></path><path d="M792 456L888 456" stroke-width="8" stroke="rgba(20, 57, 95, 1)"></path><path d="M780 456 a12 12 0 1 0 24 0 a12 12 0 1 0 -24 0zM876 456 a12 12 0 1 0 24 0 a12 12 0 1 0 -24 0z" fill="rgba(20, 57, 95, 1)"></path><path d="M1320 168L1416 168" stroke-width="8" stroke="rgba(20, 57, 95, 1)"></path><path d="M1308 168 a12 12 0 1 0 24 0 a12 12 0 1 0 -24 0zM1404 168 a12 12 0 1 0 24 0 a12 12 0 1 0 -24 0z" fill="rgba(20, 57, 95, 1)"></path><path d="M984 72L984 168" stroke-width="8" stroke="rgba(20, 57, 95, 1)"></path><path d="M972 72 a12 12 0 1 0 24 0 a12 12 0 1 0 -24 0zM972 168 a12 12 0 1 0 24 0 a12 12 0 1 0 -24 0z" fill="rgba(20, 57, 95, 1)"></path><path d="M984 600L984 648L1080 744" stroke-width="8" stroke="rgba(20, 57, 95, 1)"></path><path d="M972 600 a12 12 0 1 0 24 0 a12 12 0 1 0 -24 0zM1068 744 a12 12 0 1 0 24 0 a12 12 0 1 0 -24 0z" fill="rgba(20, 57, 95, 1)"></path><path d="M360 312L360 264L264 168" stroke-width="8" stroke="rgba(20, 57, 95, 1)"></path><path d="M348 312 a12 12 0 1 0 24 0 a12 12 0 1 0 -24 0zM252 168 a12 12 0 1 0 24 0 a12 12 0 1 0 -24 0z" fill="rgba(20, 57, 95, 1)"></path><path d="M120 840L120 936L168 984L216 984" stroke-width="8" stroke="rgba(20, 57, 95, 1)"></path><path d="M108 840 a12 12 0 1 0 24 0 a12 12 0 1 0 -24 0zM204 984 a12 12 0 1 0 24 0 a12 12 0 1 0 -24 0z" fill="rgba(20, 57, 95, 1)"></path><path d="M504 168L504 24" stroke-width="8" stroke="rgba(20, 57, 95, 1)"></path><path d="M492 168 a12 12 0 1 0 24 0 a12 12 0 1 0 -24 0zM492 24 a12 12 0 1 0 24 0 a12 12 0 1 0 -24 0z" fill="rgba(20, 57, 95, 1)"></path><path d="M408 1080L408 1128L360 1176" stroke-width="8" stroke="rgba(20, 57, 95, 1)"></path><path d="M396 1080 a12 12 0 1 0 24 0 a12 12 0 1 0 -24 0zM348 1176 a12 12 0 1 0 24 0 a12 12 0 1 0 -24 0z" fill="rgba(20, 57, 95, 1)"></path><path d="M408 24L408 120" stroke-width="8" stroke="rgba(20, 57, 95, 1)"></path><path d="M396 24 a12 12 0 1 0 24 0 a12 12 0 1 0 -24 0zM396 120 a12 12 0 1 0 24 0 a12 12 0 1 0 -24 0z" fill="rgba(20, 57, 95, 1)"></path><path d="M1320 792L1416 792" stroke-width="8" stroke="rgba(20, 57, 95, 1)"></path><path d="M1308 792 a12 12 0 1 0 24 0 a12 12 0 1 0 -24 0zM1404 792 a12 12 0 1 0 24 0 a12 12 0 1 0 -24 0z" fill="rgba(20, 57, 95, 1)"></path><path d="M1416 600L1416 504" stroke-width="8" stroke="rgba(20, 57, 95, 1)"></path><path d="M1404 600 a12 12 0 1 0 24 0 a12 12 0 1 0 -24 0zM1404 504 a12 12 0 1 0 24 0 a12 12 0 1 0 -24 0z" fill="rgba(20, 57, 95, 1)"></path><path d="M360 840L360 744" stroke-width="8" stroke="rgba(20, 57, 95, 1)"></path><path d="M348 840 a12 12 0 1 0 24 0 a12 12 0 1 0 -24 0zM348 744 a12 12 0 1 0 24 0 a12 12 0 1 0 -24 0z" fill="rgba(20, 57, 95, 1)"></path></g></g><defs><mask id="SvgjsMask1085"><rect width="1440" height="1440" fill="#ffffff"></rect></mask><mask id="SvgjsMask1086"><rect width="1440" height="1440" fill="white"></rect><path d="M258 408 a6 6 0 1 0 12 0 a6 6 0 1 0 -12 0zM1026 1224 a6 6 0 1 0 12 0 a6 6 0 1 0 -12 0z" fill="black"></path><path d="M1170 408 a6 6 0 1 0 12 0 a6 6 0 1 0 -12 0zM258 312 a6 6 0 1 0 12 0 a6 6 0 1 0 -12 0z" fill="black"></path><path d="M1074 312 a6 6 0 1 0 12 0 a6 6 0 1 0 -12 0zM1410 72 a6 6 0 1 0 12 0 a6 6 0 1 0 -12 0z" fill="black"></path><path d="M258 360 a6 6 0 1 0 12 0 a6 6 0 1 0 -12 0zM18 552 a6 6 0 1 0 12 0 a6 6 0 1 0 -12 0z" fill="black"></path><path d="M1122 840 a6 6 0 1 0 12 0 a6 6 0 1 0 -12 0zM930 552 a6 6 0 1 0 12 0 a6 6 0 1 0 -12 0z" fill="black"></path><path d="M594 1416 a6 6 0 1 0 12 0 a6 6 0 1 0 -12 0zM18 1416 a6 6 0 1 0 12 0 a6 6 0 1 0 -12 0z" fill="black"></path><path d="M210 600 a6 6 0 1 0 12 0 a6 6 0 1 0 -12 0zM210 456 a6 6 0 1 0 12 0 a6 6 0 1 0 -12 0z" fill="black"></path><path d="M786 552 a6 6 0 1 0 12 0 a6 6 0 1 0 -12 0zM546 792 a6 6 0 1 0 12 0 a6 6 0 1 0 -12 0z" fill="black"></path><path d="M18 696 a6 6 0 1 0 12 0 a6 6 0 1 0 -12 0zM18 600 a6 6 0 1 0 12 0 a6 6 0 1 0 -12 0z" fill="black"></path><path d="M1314 504 a6 6 0 1 0 12 0 a6 6 0 1 0 -12 0zM978 552 a6 6 0 1 0 12 0 a6 6 0 1 0 -12 0z" fill="black"></path><path d="M402 936 a6 6 0 1 0 12 0 a6 6 0 1 0 -12 0zM258 600 a6 6 0 1 0 12 0 a6 6 0 1 0 -12 0z" fill="black"></path><path d="M162 408 a6 6 0 1 0 12 0 a6 6 0 1 0 -12 0zM18 504 a6 6 0 1 0 12 0 a6 6 0 1 0 -12 0z" fill="black"></path><path d="M1362 744 a6 6 0 1 0 12 0 a6 6 0 1 0 -12 0zM1410 984 a6 6 0 1 0 12 0 a6 6 0 1 0 -12 0z" fill="black"></path><path d="M1074 360 a6 6 0 1 0 12 0 a6 6 0 1 0 -12 0zM162 168 a6 6 0 1 0 12 0 a6 6 0 1 0 -12 0z" fill="black"></path><path d="M450 264 a6 6 0 1 0 12 0 a6 6 0 1 0 -12 0zM18 24 a6 6 0 1 0 12 0 a6 6 0 1 0 -12 0z" fill="black"></path><path d="M1410 648 a6 6 0 1 0 12 0 a6 6 0 1 0 -12 0zM1266 600 a6 6 0 1 0 12 0 a6 6 0 1 0 -12 0z" fill="black"></path><path d="M1266 792 a6 6 0 1 0 12 0 a6 6 0 1 0 -12 0zM1410 936 a6 6 0 1 0 12 0 a6 6 0 1 0 -12 0z" fill="black"></path><path d="M930 1080 a6 6 0 1 0 12 0 a6 6 0 1 0 -12 0zM786 600 a6 6 0 1 0 12 0 a6 6 0 1 0 -12 0z" fill="black"></path><path d="M402 1320 a6 6 0 1 0 12 0 a6 6 0 1 0 -12 0zM642 984 a6 6 0 1 0 12 0 a6 6 0 1 0 -12 0z" fill="black"></path><path d="M1314 312 a6 6 0 1 0 12 0 a6 6 0 1 0 -12 0zM1410 312 a6 6 0 1 0 12 0 a6 6 0 1 0 -12 0z" fill="black"></path><path d="M546 1128 a6 6 0 1 0 12 0 a6 6 0 1 0 -12 0zM450 1368 a6 6 0 1 0 12 0 a6 6 0 1 0 -12 0z" fill="black"></path><path d="M690 888 a6 6 0 1 0 12 0 a6 6 0 1 0 -12 0zM1410 1176 a6 6 0 1 0 12 0 a6 6 0 1 0 -12 0z" fill="black"></path><path d="M210 1032 a6 6 0 1 0 12 0 a6 6 0 1 0 -12 0zM66 648 a6 6 0 1 0 12 0 a6 6 0 1 0 -12 0z" fill="black"></path><path d="M1122 1272 a6 6 0 1 0 12 0 a6 6 0 1 0 -12 0zM1410 1224 a6 6 0 1 0 12 0 a6 6 0 1 0 -12 0z" fill="black"></path><path d="M66 408 a6 6 0 1 0 12 0 a6 6 0 1 0 -12 0zM18 72 a6 6 0 1 0 12 0 a6 6 0 1 0 -12 0z" fill="black"></path><path d="M978 1080 a6 6 0 1 0 12 0 a6 6 0 1 0 -12 0zM1410 1128 a6 6 0 1 0 12 0 a6 6 0 1 0 -12 0z" fill="black"></path><path d="M258 1176 a6 6 0 1 0 12 0 a6 6 0 1 0 -12 0zM258 1368 a6 6 0 1 0 12 0 a6 6 0 1 0 -12 0z" fill="black"></path><path d="M1410 216 a6 6 0 1 0 12 0 a6 6 0 1 0 -12 0zM1410 456 a6 6 0 1 0 12 0 a6 6 0 1 0 -12 0z" fill="black"></path><path d="M1362 24 a6 6 0 1 0 12 0 a6 6 0 1 0 -12 0zM450 312 a6 6 0 1 0 12 0 a6 6 0 1 0 -12 0z" fill="black"></path><path d="M882 936 a6 6 0 1 0 12 0 a6 6 0 1 0 -12 0zM642 888 a6 6 0 1 0 12 0 a6 6 0 1 0 -12 0z" fill="black"></path><path d="M66 216 a6 6 0 1 0 12 0 a6 6 0 1 0 -12 0zM210 72 a6 6 0 1 0 12 0 a6 6 0 1 0 -12 0z" fill="black"></path><path d="M210 264 a6 6 0 1 0 12 0 a6 6 0 1 0 -12 0zM66 360 a6 6 0 1 0 12 0 a6 6 0 1 0 -12 0z" fill="black"></path><path d="M882 120 a6 6 0 1 0 12 0 a6 6 0 1 0 -12 0zM978 216 a6 6 0 1 0 12 0 a6 6 0 1 0 -12 0z" fill="black"></path><path d="M882 1224 a6 6 0 1 0 12 0 a6 6 0 1 0 -12 0zM786 1416 a6 6 0 1 0 12 0 a6 6 0 1 0 -12 0z" fill="black"></path><path d="M978 1368 a6 6 0 1 0 12 0 a6 6 0 1 0 -12 0zM1362 1224 a6 6 0 1 0 12 0 a6 6 0 1 0 -12 0z" fill="black"></path><path d="M306 1128 a6 6 0 1 0 12 0 a6 6 0 1 0 -12 0zM306 1368 a6 6 0 1 0 12 0 a6 6 0 1 0 -12 0z" fill="black"></path><path d="M1074 216 a6 6 0 1 0 12 0 a6 6 0 1 0 -12 0zM1266 72 a6 6 0 1 0 12 0 a6 6 0 1 0 -12 0z" fill="black"></path><path d="M450 216 a6 6 0 1 0 12 0 a6 6 0 1 0 -12 0zM450 24 a6 6 0 1 0 12 0 a6 6 0 1 0 -12 0z" fill="black"></path><path d="M738 1224 a6 6 0 1 0 12 0 a6 6 0 1 0 -12 0zM834 1176 a6 6 0 1 0 12 0 a6 6 0 1 0 -12 0z" fill="black"></path><path d="M1074 1032 a6 6 0 1 0 12 0 a6 6 0 1 0 -12 0zM978 744 a6 6 0 1 0 12 0 a6 6 0 1 0 -12 0z" fill="black"></path><path d="M1122 1032 a6 6 0 1 0 12 0 a6 6 0 1 0 -12 0zM1218 936 a6 6 0 1 0 12 0 a6 6 0 1 0 -12 0z" fill="black"></path><path d="M402 168 a6 6 0 1 0 12 0 a6 6 0 1 0 -12 0zM258 24 a6 6 0 1 0 12 0 a6 6 0 1 0 -12 0z" fill="black"></path><path d="M210 120 a6 6 0 1 0 12 0 a6 6 0 1 0 -12 0zM402 312 a6 6 0 1 0 12 0 a6 6 0 1 0 -12 0z" fill="black"></path><path d="M66 1368 a6 6 0 1 0 12 0 a6 6 0 1 0 -12 0zM18 1224 a6 6 0 1 0 12 0 a6 6 0 1 0 -12 0z" fill="black"></path><path d="M114 1176 a6 6 0 1 0 12 0 a6 6 0 1 0 -12 0zM258 696 a6 6 0 1 0 12 0 a6 6 0 1 0 -12 0z" fill="black"></path><path d="M450 936 a6 6 0 1 0 12 0 a6 6 0 1 0 -12 0zM210 1368 a6 6 0 1 0 12 0 a6 6 0 1 0 -12 0z" fill="black"></path><path d="M594 600 a6 6 0 1 0 12 0 a6 6 0 1 0 -12 0zM690 600 a6 6 0 1 0 12 0 a6 6 0 1 0 -12 0z" fill="black"></path><path d="M1218 1368 a6 6 0 1 0 12 0 a6 6 0 1 0 -12 0zM834 1416 a6 6 0 1 0 12 0 a6 6 0 1 0 -12 0z" fill="black"></path><path d="M738 120 a6 6 0 1 0 12 0 a6 6 0 1 0 -12 0zM738 24 a6 6 0 1 0 12 0 a6 6 0 1 0 -12 0z" fill="black"></path><path d="M546 984 a6 6 0 1 0 12 0 a6 6 0 1 0 -12 0zM354 1368 a6 6 0 1 0 12 0 a6 6 0 1 0 -12 0z" fill="black"></path><path d="M1362 1368 a6 6 0 1 0 12 0 a6 6 0 1 0 -12 0zM1026 1416 a6 6 0 1 0 12 0 a6 6 0 1 0 -12 0z" fill="black"></path><path d="M546 264 a6 6 0 1 0 12 0 a6 6 0 1 0 -12 0zM546 24 a6 6 0 1 0 12 0 a6 6 0 1 0 -12 0z" fill="black"></path><path d="M642 1224 a6 6 0 1 0 12 0 a6 6 0 1 0 -12 0zM498 1224 a6 6 0 1 0 12 0 a6 6 0 1 0 -12 0z" fill="black"></path><path d="M834 168 a6 6 0 1 0 12 0 a6 6 0 1 0 -12 0zM834 24 a6 6 0 1 0 12 0 a6 6 0 1 0 -12 0z" fill="black"></path><path d="M1170 936 a6 6 0 1 0 12 0 a6 6 0 1 0 -12 0zM1026 792 a6 6 0 1 0 12 0 a6 6 0 1 0 -12 0z" fill="black"></path><path d="M402 552 a6 6 0 1 0 12 0 a6 6 0 1 0 -12 0zM594 696 a6 6 0 1 0 12 0 a6 6 0 1 0 -12 0z" fill="black"></path><path d="M786 1272 a6 6 0 1 0 12 0 a6 6 0 1 0 -12 0zM642 1416 a6 6 0 1 0 12 0 a6 6 0 1 0 -12 0z" fill="black"></path><path d="M1266 216 a6 6 0 1 0 12 0 a6 6 0 1 0 -12 0zM978 456 a6 6 0 1 0 12 0 a6 6 0 1 0 -12 0z" fill="black"></path><path d="M1266 984 a6 6 0 1 0 12 0 a6 6 0 1 0 -12 0zM1026 1080 a6 6 0 1 0 12 0 a6 6 0 1 0 -12 0z" fill="black"></path><path d="M786 936 a6 6 0 1 0 12 0 a6 6 0 1 0 -12 0zM882 1080 a6 6 0 1 0 12 0 a6 6 0 1 0 -12 0z" fill="black"></path><path d="M690 1128 a6 6 0 1 0 12 0 a6 6 0 1 0 -12 0zM690 1032 a6 6 0 1 0 12 0 a6 6 0 1 0 -12 0z" fill="black"></path><path d="M354 600 a6 6 0 1 0 12 0 a6 6 0 1 0 -12 0zM546 744 a6 6 0 1 0 12 0 a6 6 0 1 0 -12 0z" fill="black"></path><path d="M162 936 a6 6 0 1 0 12 0 a6 6 0 1 0 -12 0zM162 744 a6 6 0 1 0 12 0 a6 6 0 1 0 -12 0z" fill="black"></path><path d="M738 888 a6 6 0 1 0 12 0 a6 6 0 1 0 -12 0zM834 840 a6 6 0 1 0 12 0 a6 6 0 1 0 -12 0z" fill="black"></path><path d="M738 264 a6 6 0 1 0 12 0 a6 6 0 1 0 -12 0zM930 264 a6 6 0 1 0 12 0 a6 6 0 1 0 -12 0z" fill="black"></path><path d="M66 1080 a6 6 0 1 0 12 0 a6 6 0 1 0 -12 0zM66 792 a6 6 0 1 0 12 0 a6 6 0 1 0 -12 0z" fill="black"></path><path d="M594 216 a6 6 0 1 0 12 0 a6 6 0 1 0 -12 0zM786 24 a6 6 0 1 0 12 0 a6 6 0 1 0 -12 0z" fill="black"></path><path d="M642 72 a6 6 0 1 0 12 0 a6 6 0 1 0 -12 0zM738 168 a6 6 0 1 0 12 0 a6 6 0 1 0 -12 0z" fill="black"></path><path d="M66 72 a6 6 0 1 0 12 0 a6 6 0 1 0 -12 0zM162 72 a6 6 0 1 0 12 0 a6 6 0 1 0 -12 0z" fill="black"></path><path d="M258 1080 a6 6 0 1 0 12 0 a6 6 0 1 0 -12 0zM114 1080 a6 6 0 1 0 12 0 a6 6 0 1 0 -12 0z" fill="black"></path><path d="M1218 1272 a6 6 0 1 0 12 0 a6 6 0 1 0 -12 0zM1314 1272 a6 6 0 1 0 12 0 a6 6 0 1 0 -12 0z" fill="black"></path><path d="M1170 456 a6 6 0 1 0 12 0 a6 6 0 1 0 -12 0zM1266 504 a6 6 0 1 0 12 0 a6 6 0 1 0 -12 0z" fill="black"></path><path d="M450 840 a6 6 0 1 0 12 0 a6 6 0 1 0 -12 0zM594 936 a6 6 0 1 0 12 0 a6 6 0 1 0 -12 0z" fill="black"></path><path d="M642 1272 a6 6 0 1 0 12 0 a6 6 0 1 0 -12 0zM642 1368 a6 6 0 1 0 12 0 a6 6 0 1 0 -12 0z" fill="black"></path><path d="M1314 840 a6 6 0 1 0 12 0 a6 6 0 1 0 -12 0zM1410 888 a6 6 0 1 0 12 0 a6 6 0 1 0 -12 0z" fill="black"></path><path d="M1266 696 a6 6 0 1 0 12 0 a6 6 0 1 0 -12 0zM1170 792 a6 6 0 1 0 12 0 a6 6 0 1 0 -12 0z" fill="black"></path><path d="M738 1272 a6 6 0 1 0 12 0 a6 6 0 1 0 -12 0zM642 1032 a6 6 0 1 0 12 0 a6 6 0 1 0 -12 0z" fill="black"></path><path d="M258 888 a6 6 0 1 0 12 0 a6 6 0 1 0 -12 0zM210 744 a6 6 0 1 0 12 0 a6 6 0 1 0 -12 0z" fill="black"></path><path d="M306 552 a6 6 0 1 0 12 0 a6 6 0 1 0 -12 0zM306 408 a6 6 0 1 0 12 0 a6 6 0 1 0 -12 0z" fill="black"></path><path d="M66 312 a6 6 0 1 0 12 0 a6 6 0 1 0 -12 0zM162 216 a6 6 0 1 0 12 0 a6 6 0 1 0 -12 0z" fill="black"></path><path d="M1122 600 a6 6 0 1 0 12 0 a6 6 0 1 0 -12 0zM1218 504 a6 6 0 1 0 12 0 a6 6 0 1 0 -12 0z" fill="black"></path><path d="M834 936 a6 6 0 1 0 12 0 a6 6 0 1 0 -12 0zM882 1032 a6 6 0 1 0 12 0 a6 6 0 1 0 -12 0z" fill="black"></path><path d="M642 792 a6 6 0 1 0 12 0 a6 6 0 1 0 -12 0zM834 744 a6 6 0 1 0 12 0 a6 6 0 1 0 -12 0z" fill="black"></path><path d="M690 24 a6 6 0 1 0 12 0 a6 6 0 1 0 -12 0zM594 24 a6 6 0 1 0 12 0 a6 6 0 1 0 -12 0z" fill="black"></path><path d="M786 456 a6 6 0 1 0 12 0 a6 6 0 1 0 -12 0zM882 456 a6 6 0 1 0 12 0 a6 6 0 1 0 -12 0z" fill="black"></path><path d="M1314 168 a6 6 0 1 0 12 0 a6 6 0 1 0 -12 0zM1410 168 a6 6 0 1 0 12 0 a6 6 0 1 0 -12 0z" fill="black"></path><path d="M978 72 a6 6 0 1 0 12 0 a6 6 0 1 0 -12 0zM978 168 a6 6 0 1 0 12 0 a6 6 0 1 0 -12 0z" fill="black"></path><path d="M978 600 a6 6 0 1 0 12 0 a6 6 0 1 0 -12 0zM1074 744 a6 6 0 1 0 12 0 a6 6 0 1 0 -12 0z" fill="black"></path><path d="M354 312 a6 6 0 1 0 12 0 a6 6 0 1 0 -12 0zM258 168 a6 6 0 1 0 12 0 a6 6 0 1 0 -12 0z" fill="black"></path><path d="M114 840 a6 6 0 1 0 12 0 a6 6 0 1 0 -12 0zM210 984 a6 6 0 1 0 12 0 a6 6 0 1 0 -12 0z" fill="black"></path><path d="M498 168 a6 6 0 1 0 12 0 a6 6 0 1 0 -12 0zM498 24 a6 6 0 1 0 12 0 a6 6 0 1 0 -12 0z" fill="black"></path><path d="M402 1080 a6 6 0 1 0 12 0 a6 6 0 1 0 -12 0zM354 1176 a6 6 0 1 0 12 0 a6 6 0 1 0 -12 0z" fill="black"></path><path d="M402 24 a6 6 0 1 0 12 0 a6 6 0 1 0 -12 0zM402 120 a6 6 0 1 0 12 0 a6 6 0 1 0 -12 0z" fill="black"></path><path d="M1314 792 a6 6 0 1 0 12 0 a6 6 0 1 0 -12 0zM1410 792 a6 6 0 1 0 12 0 a6 6 0 1 0 -12 0z" fill="black"></path><path d="M1410 600 a6 6 0 1 0 12 0 a6 6 0 1 0 -12 0zM1410 504 a6 6 0 1 0 12 0 a6 6 0 1 0 -12 0z" fill="black"></path><path d="M354 840 a6 6 0 1 0 12 0 a6 6 0 1 0 -12 0zM354 744 a6 6 0 1 0 12 0 a6 6 0 1 0 -12 0z" fill="black"></path></mask></defs></svg>