<svg xmlns="http://www.w3.org/2000/svg" version="1.1" xmlns:xlink="http://www.w3.org/1999/xlink" xmlns:svgjs="http://svgjs.com/svgjs" width="1440" height="1440" preserveAspectRatio="none" viewBox="0 0 1440 1440"><g mask="url(&quot;#SvgjsMask1018&quot;)" fill="none"><rect width="1440" height="1440" x="0" y="0" fill="#0e2a47"></rect><path d="M889 215L888 1195" stroke-width="8" stroke="url(#SvgjsLinearGradient1019)" stroke-linecap="round" class="Up"></path><path d="M1237 1407L1236 1855" stroke-width="10" stroke="url(#SvgjsLinearGradient1019)" stroke-linecap="round" class="Up"></path><path d="M1396 1275L1395 497" stroke-width="6" stroke="url(#SvgjsLinearGradient1020)" stroke-linecap="round" class="Down"></path><path d="M389 1152L388 1857" stroke-width="10" stroke="url(#SvgjsLinearGradient1020)" stroke-linecap="round" class="Down"></path><path d="M623 5L622 -551" stroke-width="10" stroke="url(#SvgjsLinearGradient1020)" stroke-linecap="round" class="Down"></path><path d="M660 97L659 -961" stroke-width="10" stroke="url(#SvgjsLinearGradient1020)" stroke-linecap="round" class="Down"></path><path d="M1329 397L1328 947" stroke-width="10" stroke="url(#SvgjsLinearGradient1020)" stroke-linecap="round" class="Down"></path><path d="M392 401L391 -661" stroke-width="8" stroke="url(#SvgjsLinearGradient1019)" stroke-linecap="round" class="Up"></path><path d="M515 485L514 -338" stroke-width="8" stroke="url(#SvgjsLinearGradient1019)" stroke-linecap="round" class="Up"></path><path d="M723 791L722 1381" stroke-width="6" stroke="url(#SvgjsLinearGradient1020)" stroke-linecap="round" class="Down"></path><path d="M125 627L124 238" stroke-width="10" stroke="url(#SvgjsLinearGradient1020)" stroke-linecap="round" class="Down"></path><path d="M375 903L374 108" stroke-width="8" stroke="url(#SvgjsLinearGradient1020)" stroke-linecap="round" class="Down"></path><path d="M903 1260L902 411" stroke-width="6" stroke="url(#SvgjsLinearGradient1019)" stroke-linecap="round" class="Up"></path><path d="M169 1107L168 421" stroke-width="6" stroke="url(#SvgjsLinearGradient1019)" stroke-linecap="round" class="Up"></path><path d="M400 518L399 -92" stroke-width="6" stroke="url(#SvgjsLinearGradient1019)" stroke-linecap="round" class="Up"></path><path d="M241 1119L240 474" stroke-width="6" stroke="url(#SvgjsLinearGradient1020)" stroke-linecap="round" class="Down"></path><path d="M1114 778L1113 1827" stroke-width="10" stroke="url(#SvgjsLinearGradient1019)" stroke-linecap="round" class="Up"></path><path d="M1255 466L1254 1537" stroke-width="10" stroke="url(#SvgjsLinearGradient1019)" stroke-linecap="round" class="Up"></path><path d="M329 556L328 917" stroke-width="10" stroke="url(#SvgjsLinearGradient1020)" stroke-linecap="round" class="Down"></path><path d="M369 731L368 -239" stroke-width="6" stroke="url(#SvgjsLinearGradient1020)" stroke-linecap="round" class="Down"></path><path d="M918 1412L917 2382" stroke-width="10" stroke="url(#SvgjsLinearGradient1019)" stroke-linecap="round" class="Up"></path><path d="M875 987L874 -72" stroke-width="10" stroke="url(#SvgjsLinearGradient1020)" stroke-linecap="round" class="Down"></path><path d="M524 595L523 1272" stroke-width="10" stroke="url(#SvgjsLinearGradient1019)" stroke-linecap="round" class="Up"></path><path d="M727 883L726 1865" stroke-width="10" stroke="url(#SvgjsLinearGradient1020)" stroke-linecap="round" class="Down"></path><path d="M423 233L422 893" stroke-width="8" stroke="url(#SvgjsLinearGradient1020)" stroke-linecap="round" class="Down"></path><path d="M592 416L591 -651" stroke-width="8" stroke="url(#SvgjsLinearGradient1020)" stroke-linecap="round" class="Down"></path><path d="M984 1159L983 2123" stroke-width="6" stroke="url(#SvgjsLinearGradient1020)" stroke-linecap="round" class="Down"></path><path d="M1388 1429L1387 968" stroke-width="8" stroke="url(#SvgjsLinearGradient1019)" stroke-linecap="round" class="Up"></path><path d="M1116 563L1115 963" stroke-width="8" stroke="url(#SvgjsLinearGradient1019)" stroke-linecap="round" class="Up"></path><path d="M305 1273L304 2259" stroke-width="8" stroke="url(#SvgjsLinearGradient1019)" stroke-linecap="round" class="Up"></path><path d="M1081 574L1080 1199" stroke-width="10" stroke="url(#SvgjsLinearGradient1020)" stroke-linecap="round" class="Down"></path><path d="M898 1029L897 323" stroke-width="6" stroke="url(#SvgjsLinearGradient1020)" stroke-linecap="round" class="Down"></path><path d="M843 921L842 1951" stroke-width="8" stroke="url(#SvgjsLinearGradient1020)" stroke-linecap="round" class="Down"></path><path d="M464 878L463 1487" stroke-width="8" stroke="url(#SvgjsLinearGradient1020)" stroke-linecap="round" class="Down"></path><path d="M82 45L81 939" stroke-width="8" stroke="url(#SvgjsLinearGradient1019)" stroke-linecap="round" class="Up"></path><path d="M296 432L295 6" stroke-width="10" stroke="url(#SvgjsLinearGradient1019)" stroke-linecap="round" class="Up"></path></g><defs><mask id="SvgjsMask1018"><rect width="1440" height="1440" fill="#ffffff"></rect></mask><linearGradient x1="0%" y1="100%" x2="0%" y2="0%" id="SvgjsLinearGradient1019"><stop stop-color="rgba(204, 222, 241, 0)" offset="0"></stop><stop stop-color="rgba(204, 222, 241, 1)" offset="1"></stop></linearGradient><linearGradient x1="0%" y1="0%" x2="0%" y2="100%" id="SvgjsLinearGradient1020"><stop stop-color="rgba(204, 222, 241, 0)" offset="0"></stop><stop stop-color="rgba(204, 222, 241, 1)" offset="1"></stop></linearGradient></defs></svg>