<svg width="175" height="200" viewBox="0 0 175 200" fill="none" xmlns="http://www.w3.org/2000/svg">
<path d="M3.09023 53.1276C1.38354 50.2872 2.3026 46.601 5.143 44.8943L74.7167 3.09021C77.5572 1.38352 81.2433 2.30258 82.95 5.14298L96.4774 27.6563L16.6176 75.6409L3.09023 53.1276Z" fill="#D9D9D9"/>
<path d="M29.6398 52.1559C29.4889 52.2465 29.3311 52.2713 29.1665 52.2303C29.0018 52.1892 28.8741 52.0932 28.7835 51.9424L24.5993 44.9787C24.5046 44.821 24.4798 44.6633 24.5249 44.5055C24.566 44.3408 24.662 44.2131 24.8128 44.1225L27.2712 42.6454C27.7375 42.3652 28.2011 42.2126 28.6621 42.1876C29.1258 42.1516 29.5539 42.2351 29.9464 42.4379C30.3458 42.6366 30.6712 42.945 30.9225 43.3633C31.1244 43.6994 31.2152 44.0601 31.1948 44.4457C31.1772 44.8202 31.0581 45.1811 30.8374 45.5284C31.3559 45.3662 31.8492 45.3638 32.3171 45.5213C32.7851 45.6788 33.1756 46.0181 33.4888 46.5393C33.7731 47.0124 33.9112 47.4987 33.9033 47.9981C33.9023 48.4934 33.7667 48.9668 33.4967 49.4184C33.2226 49.8631 32.8284 50.2399 32.3141 50.5489L29.6398 52.1559ZM29.5813 50.847L31.7208 49.5615C32.0362 49.372 32.281 49.1502 32.4551 48.8963C32.6292 48.6424 32.7209 48.3679 32.7303 48.0729C32.7397 47.7779 32.6497 47.4727 32.4601 47.1573C32.283 46.8624 32.0681 46.6602 31.8156 46.5506C31.5631 46.441 31.288 46.4103 30.9903 46.4585C30.6885 46.4999 30.3799 46.6153 30.0644 46.8048L27.9249 48.0904L29.5813 50.847ZM27.3316 47.1029L29.2551 45.9472C29.646 45.7123 29.9072 45.4247 30.0386 45.0844C30.177 44.7399 30.1288 44.3723 29.8939 43.9814C29.659 43.5905 29.3591 43.3787 28.9942 43.346C28.6319 43.3024 28.2554 43.398 27.8645 43.6328L25.941 44.7886L27.3316 47.1029ZM38.0399 47.1086C37.889 47.1992 37.7333 47.2274 37.5728 47.1932C37.415 47.1481 37.2907 47.05 37.2001 46.8992L34.4498 42.3219C34.355 42.1642 34.3268 42.0085 34.3651 41.8548C34.4103 41.697 34.5083 41.5728 34.6592 41.4821C34.8169 41.3873 34.9726 41.3591 35.1263 41.3974C35.28 41.4358 35.4042 41.5338 35.499 41.6915L38.2493 46.2688C38.3399 46.4196 38.3681 46.5753 38.3339 46.7359C38.2956 46.8896 38.1976 47.0138 38.0399 47.1086ZM34.1091 40.5667C33.924 40.6779 33.7237 40.7096 33.5082 40.6617C33.2956 40.6028 33.1336 40.4808 33.0223 40.2957C32.9111 40.1105 32.8815 39.9137 32.9335 39.7051C32.9882 39.4856 33.1082 39.3201 33.2933 39.2089C33.4784 39.0977 33.6774 39.0715 33.8901 39.1303C34.1055 39.1782 34.2688 39.2947 34.3801 39.4799C34.4913 39.665 34.5196 39.8674 34.4648 40.0869C34.4128 40.2955 34.2943 40.4554 34.1091 40.5667ZM41.9109 44.5166L40.8407 44.3197L41.5629 37.5999L42.6229 37.803L41.9109 44.5166ZM41.7198 44.8974C41.3975 45.0911 41.1395 45.0268 40.9459 44.7045C40.7522 44.3822 40.8165 44.1242 41.1388 43.9306L44.6464 41.823C44.9687 41.6294 45.2266 41.6937 45.4203 42.016C45.6139 42.3383 45.5496 42.5963 45.2273 42.7899L41.7198 44.8974ZM38.8172 40.2997C38.4949 40.4933 38.2369 40.429 38.0433 40.1067C37.8496 39.7844 37.9139 39.5265 38.2362 39.3328L41.7437 37.2253C42.066 37.0316 42.324 37.0959 42.5177 37.4182C42.7113 37.7405 42.647 37.9985 42.3247 38.1922L38.8172 40.2997ZM48.6632 40.7254C48.5124 40.816 48.3546 40.8408 48.19 40.7998C48.0253 40.7587 47.8976 40.6628 47.807 40.5119L43.6228 33.5483C43.5281 33.3906 43.5033 33.2328 43.5484 33.075C43.5895 32.9103 43.6854 32.7827 43.8363 32.692L46.2947 31.2149C46.761 30.9347 47.2246 30.7821 47.6856 30.7571C48.1493 30.7212 48.5774 30.8046 48.9699 31.0074C49.3693 31.2061 49.6946 31.5146 49.946 31.9329C50.1479 32.2689 50.2387 32.6297 50.2183 33.0152C50.2007 33.3898 50.0816 33.7507 49.8609 34.0979C50.3794 33.9357 50.8727 33.9333 51.3406 34.0908C51.8086 34.2483 52.1991 34.5876 52.5122 35.1088C52.7965 35.5819 52.9347 36.0682 52.9268 36.5676C52.9258 37.0629 52.7902 37.5363 52.5202 37.9879C52.2461 38.4326 51.8519 38.8095 51.3376 39.1185L48.6632 40.7254ZM48.6048 39.4166L50.7443 38.131C51.0597 37.9415 51.3045 37.7198 51.4786 37.4658C51.6526 37.2119 51.7444 36.9374 51.7538 36.6425C51.7632 36.3475 51.6732 36.0423 51.4836 35.7268C51.3065 35.432 51.0916 35.2297 50.8391 35.1201C50.5866 35.0105 50.3115 34.9798 50.0138 35.028C49.712 35.0694 49.4034 35.1848 49.0879 35.3744L46.9484 36.6599L48.6048 39.4166ZM46.3551 35.6725L48.2786 34.5167C48.6695 34.2818 48.9306 33.9943 49.0621 33.6539C49.2005 33.3095 49.1522 32.9418 48.9174 32.5509C48.6825 32.1601 48.3826 31.9483 48.0176 31.9156C47.6554 31.8719 47.2789 31.9675 46.888 32.2024L44.9645 33.3581L46.3551 35.6725ZM57.7731 35.2516C57.4714 35.4329 57.1545 35.5113 56.8225 35.4868C56.4904 35.4624 56.1748 35.3487 55.8756 35.1458C55.5722 34.9361 55.3093 34.6461 55.0868 34.2758L51.7123 28.6596C51.6217 28.5088 51.5955 28.3565 51.6338 28.2028C51.6721 28.0491 51.7667 27.927 51.9176 27.8363C52.0684 27.7457 52.2207 27.7195 52.3744 27.7578C52.5281 27.7961 52.6503 27.8907 52.7409 28.0416L56.1154 33.6577C56.2679 33.9115 56.4416 34.0918 56.6364 34.1987C56.8313 34.3056 57.0042 34.3137 57.1551 34.223L57.4122 34.0685C57.5494 33.9861 57.6879 33.9682 57.8279 34.0148C57.9747 34.0572 58.0935 34.1538 58.1841 34.3047C58.2748 34.4556 58.2838 34.6181 58.2112 34.7924C58.1386 34.9667 57.9994 35.1157 57.7937 35.2393L57.7731 35.2516ZM62.7612 32.3105C62.2057 32.6443 61.6433 32.8189 61.0739 32.8343C60.5005 32.8429 59.9626 32.7088 59.4602 32.432C58.9606 32.1442 58.544 31.7225 58.2102 31.1671C57.8724 30.6048 57.6957 30.039 57.6803 29.4696C57.6675 28.8893 57.8017 28.3514 58.0826 27.8559C58.3594 27.3536 58.7756 26.9355 59.331 26.6018C59.8796 26.2722 60.4406 26.1031 61.0141 26.0945C61.5835 26.079 62.118 26.2152 62.6175 26.503C63.1199 26.7798 63.54 27.1994 63.8778 27.7617C64.2116 28.3171 64.3882 28.8829 64.4078 29.4592C64.4233 30.0285 64.2926 30.5644 64.0157 31.0667C63.7348 31.5622 63.3166 31.9768 62.7612 32.3105ZM62.2049 31.3848C62.5615 31.1705 62.8275 30.8987 63.0029 30.5693C63.1783 30.2399 63.2549 29.8859 63.2327 29.5072C63.2174 29.1245 63.0964 28.7445 62.8698 28.3674C62.6432 27.9902 62.3645 27.705 62.0337 27.5118C61.7057 27.3075 61.3551 27.2056 60.9819 27.2058C60.6087 27.206 60.2438 27.3133 59.8872 27.5275C59.5307 27.7418 59.2647 28.0136 59.0893 28.343C58.9139 28.6724 58.8359 29.0319 58.8553 29.4215C58.8707 29.8043 58.9916 30.1843 59.2183 30.5614C59.4449 30.9386 59.7236 31.2238 60.0543 31.417C60.3851 31.6102 60.7371 31.7068 61.1103 31.7065C61.4835 31.7063 61.8483 31.599 62.2049 31.3848ZM70.6794 27.5528C70.1308 27.8824 69.5663 28.0536 68.986 28.0663C68.4084 28.068 67.8684 27.9305 67.3661 27.6537C66.8665 27.3659 66.454 26.9511 66.1285 26.4094C65.7947 25.8539 65.618 25.2881 65.5985 24.7119C65.5789 24.1356 65.7062 23.6018 65.9802 23.1105C66.2502 22.6123 66.6561 22.2004 67.1978 21.8749C67.6024 21.6318 68.0201 21.4882 68.4508 21.444C68.8775 21.393 69.3172 21.4414 69.7701 21.5893C69.932 21.6413 70.0343 21.7339 70.0769 21.8669C70.1195 22 70.1059 22.1482 70.036 22.3115C69.9812 22.4378 69.8894 22.5256 69.7604 22.5751C69.6274 22.6177 69.484 22.6199 69.3303 22.5815C68.78 22.4269 68.2546 22.4999 67.754 22.8007C67.4043 23.0108 67.1452 23.2785 66.9766 23.6038C66.804 23.9222 66.7287 24.2707 66.7509 24.6494C66.7731 25.028 66.9016 25.4128 67.1365 25.8037C67.359 26.174 67.6322 26.4578 67.9561 26.6552C68.2869 26.8484 68.6409 26.9483 69.0182 26.955C69.3914 26.9547 69.7597 26.8454 70.1231 26.627C70.3631 26.4828 70.5558 26.3297 70.7011 26.1677C70.8492 25.9948 70.9616 25.8013 71.0383 25.5872C71.0944 25.4321 71.1787 25.3161 71.2912 25.2392C71.3995 25.1555 71.5209 25.1245 71.6554 25.1464C71.8297 25.1723 71.9607 25.2429 72.0486 25.3581C72.1324 25.4664 72.1551 25.5974 72.1168 25.7511C71.8991 26.5072 71.42 27.1078 70.6794 27.5528Z" fill="black"/>
<path d="M162.686 102.008L172.702 108.017C173.32 108.387 173.832 108.91 174.187 109.537C174.542 110.164 174.729 110.871 174.729 111.592C174.729 112.312 174.542 113.02 174.187 113.646C173.832 114.273 173.32 114.797 172.702 115.167L95.3274 161.592L17.9524 115.167C17.3344 114.797 16.8229 114.273 16.4677 113.646C16.1126 113.02 15.9259 112.312 15.9259 111.592C15.9259 110.871 16.1126 110.164 16.4677 109.537C16.8229 108.91 17.3344 108.387 17.9524 108.017L27.969 102.008L95.3274 142.425L162.686 102.008ZM162.686 141.175L172.702 147.183C173.32 147.553 173.832 148.077 174.187 148.704C174.542 149.33 174.729 150.038 174.729 150.758C174.729 151.479 174.542 152.187 174.187 152.813C173.832 153.44 173.32 153.963 172.702 154.333L99.619 198.183C98.3229 198.962 96.8394 199.373 95.3274 199.373C93.8153 199.373 92.3318 198.962 91.0357 198.183L17.9524 154.333C17.3344 153.963 16.8229 153.44 16.4677 152.813C16.1126 152.187 15.9259 151.479 15.9259 150.758C15.9259 150.038 16.1126 149.33 16.4677 148.704C16.8229 148.077 17.3344 147.553 17.9524 147.183L27.969 141.175L95.3274 181.592L162.686 141.175ZM99.6107 25.4167L172.702 69.2667C173.32 69.6366 173.832 70.1604 174.187 70.787C174.542 71.4136 174.729 72.1215 174.729 72.8417C174.729 73.5619 174.542 74.2698 174.187 74.8964C173.832 75.523 173.32 76.0468 172.702 76.4167L95.3274 122.842L17.9524 76.4167C17.3344 76.0468 16.8229 75.523 16.4677 74.8964C16.1126 74.2698 15.9259 73.5619 15.9259 72.8417C15.9259 72.1215 16.1126 71.4136 16.4677 70.787C16.8229 70.1604 17.3344 69.6366 17.9524 69.2667L91.0357 25.4167C92.3318 24.638 93.8153 24.2266 95.3274 24.2266C96.8394 24.2266 98.3229 24.638 99.619 25.4167H99.6107Z" fill="#E9F3FA"/>
<g filter="url(#filter0_d_2_60)">
<path d="M30.3598 72.7087C29.7104 72.3234 29.7061 71.3849 30.3519 70.9936L54.4237 56.4061C54.7337 56.2182 55.1212 56.2129 55.4364 56.3921L77.946 69.1966C78.6094 69.5739 78.6226 70.5253 77.9699 70.9209L53.4388 85.7908C53.1231 85.9822 52.7276 85.9841 52.4101 85.7956L30.3598 72.7087Z" fill="#D9D9D9"/>
</g>
<g filter="url(#filter1_i_2_60)">
<path d="M68.4489 90.5363C67.796 90.1492 67.7955 89.2044 68.448 88.8165L123.993 55.8016C124.306 55.6156 124.695 55.6144 125.009 55.7986L140.059 64.6229C140.711 65.0052 140.719 65.9449 140.074 66.3389L85.2089 99.856C84.8929 100.049 84.4961 100.052 84.1776 99.8627L68.4489 90.5363Z" fill="#D1D1D1"/>
</g>
<path d="M64.4794 55.7406C63.7964 55.3698 63.7663 54.3862 64.4257 53.9852L98.7534 33.1103C99.0913 32.9048 99.5187 32.9242 99.8412 33.1596L101.557 34.4123C102.142 34.839 102.108 35.732 101.493 36.1001L67.1544 56.6482C66.858 56.8255 66.4909 56.8325 66.1852 56.6665L64.4794 55.7406Z" fill="black" fill-opacity="0.32"/>
<path d="M69.4636 58.7965C68.7805 58.4257 68.7504 57.4421 69.4099 57.0411L103.737 36.1662C104.075 35.9607 104.503 35.9801 104.825 36.2155L106.542 37.4682C107.126 37.8949 107.092 38.7879 106.477 39.156L72.1386 59.7041C71.8422 59.8814 71.475 59.8884 71.1693 59.7224L69.4636 58.7965Z" fill="black" fill-opacity="0.32"/>
<path d="M74.4477 61.8524C73.7646 61.4816 73.7346 60.498 74.394 60.097L108.722 39.2221C109.06 39.0166 109.487 39.036 109.809 39.2714L111.526 40.5241C112.11 40.9508 112.076 41.8438 111.461 42.2119L77.1227 62.76C76.8263 62.9373 76.4591 62.9443 76.1534 62.7784L74.4477 61.8524Z" fill="black" fill-opacity="0.32"/>
<path d="M79.4318 64.9083C78.7488 64.5375 78.7187 63.554 79.3781 63.1529L113.706 42.278C114.044 42.0725 114.471 42.0919 114.794 42.3273L116.51 43.5801C117.094 44.0067 117.06 44.8998 116.445 45.2678L82.1068 65.8159C81.8104 65.9933 81.4433 66.0002 81.1376 65.8343L79.4318 64.9083Z" fill="black" fill-opacity="0.32"/>
<defs>
<filter id="filter0_d_2_60" x="25.8702" y="56.2614" width="56.5814" height="37.6743" filterUnits="userSpaceOnUse" color-interpolation-filters="sRGB">
<feFlood flood-opacity="0" result="BackgroundImageFix"/>
<feColorMatrix in="SourceAlpha" type="matrix" values="0 0 0 0 0 0 0 0 0 0 0 0 0 0 0 0 0 0 127 0" result="hardAlpha"/>
<feOffset dy="4"/>
<feGaussianBlur stdDeviation="2"/>
<feComposite in2="hardAlpha" operator="out"/>
<feColorMatrix type="matrix" values="0 0 0 0 0 0 0 0 0 0 0 0 0 0 0 0 0 0 0.25 0"/>
<feBlend mode="normal" in2="BackgroundImageFix" result="effect1_dropShadow_2_60"/>
<feBlend mode="normal" in="SourceGraphic" in2="effect1_dropShadow_2_60" result="shape"/>
</filter>
<filter id="filter1_i_2_60" x="67.9589" y="55.6613" width="72.5941" height="48.3413" filterUnits="userSpaceOnUse" color-interpolation-filters="sRGB">
<feFlood flood-opacity="0" result="BackgroundImageFix"/>
<feBlend mode="normal" in="SourceGraphic" in2="BackgroundImageFix" result="shape"/>
<feColorMatrix in="SourceAlpha" type="matrix" values="0 0 0 0 0 0 0 0 0 0 0 0 0 0 0 0 0 0 127 0" result="hardAlpha"/>
<feOffset dy="4"/>
<feGaussianBlur stdDeviation="2"/>
<feComposite in2="hardAlpha" operator="arithmetic" k2="-1" k3="1"/>
<feColorMatrix type="matrix" values="0 0 0 0 0 0 0 0 0 0 0 0 0 0 0 0 0 0 0.25 0"/>
<feBlend mode="normal" in2="shape" result="effect1_innerShadow_2_60"/>
</filter>
</defs>
</svg>
